/* XPM */
static char *gold_xpm[] = {
"8 8 3 1",
"0 c #F7E7B5",  // Or clair
"1 c #D6AE60",  // Or moyen
"2 c #B8860B",  // Or foncé
"00122100",
"11200211",
"22110122",
"01021210",
"10122021",
"21200112",
"12011201",
"00122100"
};
