/* XPM */
static char *ea_xpm[] = {
"8 8 3 1",
"0 c #D8D6D4",  // Pierre clair
"1 c #BEBBBC",  // Pierre moyen
"2 c #A4A3A5",  // Pierre sombre
"01021210",
"10102101",
"21010212",
"01210102",
"01021210",
"10102101",
"21010212",
"01210102"
};

