/* XPM */
static char *so_xpm[] = {
"8 8 2 1",
"0 c #3B2F2F", // Brun foncé
"1 c #2B1F1F", // Brun très foncé
"01010101",
"10101010",
"01010101",
"10101010",
"01010101",
"10101010",
"01010101",
"10101010"
};
