/* XPM */
static char * wall_texture_0[] = {
"64 64 64 1",
"A c #a28059",
"B c #a88962",
"C c #ad8c66",
"D c #a88b64",
"E c #aa8c66",
"F c #af926d",
"G c #b69c72",
"H c #b99f77",
"I c #b89e76",
"J c #ba9f76",
"K c #b59874",
"L c #b69972",
"M c #b69a73",
"N c #ac8f6b",
"O c #a3835c",
"P c #977753",
"Q c #a78661",
"R c #c0a379",
"S c #bb9c74",
"T c #b89b72",
"U c #be9f76",
"V c #9d784e",
"W c #a07c51",
"X c #a47c50",
"Y c #a57e52",
"Z c #a1794e",
"a c #b5986f",
"b c #b08f69",
"c c #b29872",
"d c #b89c75",
"e c #b69c76",
"f c #b59770",
"g c #977958",
"h c #9f805c",
"i c #9d805d",
"j c #9c7c5a",
"k c #ae8f69",
"l c #bba277",
"m c #b99c74",
"n c #b89971",
"o c #b5956e",
"p c #c4a87e",
"q c #cbaa7e",
"r c #906d47",
"s c #9c7e5c",
"t c #a38361",
"u c #b29670",
"v c #b1926e",
"w c #a08360",
"x c #b29269",
"y c #b2956f",
"z c #95734e",
"0 c #9e835f",
"1 c #a88b69",
"2 c #a88966",
"3 c #a38562",
"4 c #a48662",
"5 c #ab8c67",
"6 c #b79e75",
"7 c #b1946e",
"8 c #ac916c",
"9 c #a48865",
"! c #997c5a",
"@ c #ab8e69",
"ABCDEBEFGHIJKLMNBEOBEOPQRJJJRSTUUVWXYZYRUUabCEcTddSHddeHfPghijji",
"ABCCBkSRRllRlmTKnSooCOPCpJmJJTSmqrZXXVVqSUBstQLmffLuNvFLRPgtwjjw",
"jDbbxUplUJJllmULDQOQEQPBREBxooafRrWXYVVqUnOtQjyUyKLucyKlHzjtsii0",
"gCCxSUJGJRpppUd1ihjhQOPOnOEanaanRrXYYVVqUxQ2xAESyMnKKyvHHrs30ihw",
"PtknlllRqRK4gzzrzjgtCOPOpCSpSxaSUrXXYVVqSnCxo25UK6fc7u7R8zh3sggj",
"rQyJJJpRhzrzzrzzPjjEEQPOqBkRnCooUrXXYVWqSBVWAPjh97HUIKHpjghOhP!j",
"zD7TJRarrjwt122hOhs5kQA9pxCRSxoaSrYXXVWqSOAOAjsjss9NN1NwPjjjhhh4",
"gvfaJpbr9vvF588thhjghjjOCBDRUkxfnrYXXVZqnCBCQAOQ!j!s93wwgi434O42",
"BfJllqfrvppS2i9wjsPgP!jjxEORUxoonrYXYVYqnnankOh3213993st!st2Q4ji",
"DMUUlpIr5RpK43v1thjQ2hjOaBDRUx7nnrYYYVWqxxnSoouKHHpReK1iP!!hwjPs",
"DMRl6pHrg2@3418hswjCbhjOf!BRUxonnrXXYVVqbQOBDEB222FeHRR1PjtE@4t2",
"@aRlGlJrrgPggjwjssjQEOPQRBCpSkxnSrYXYVVqnOzOO!AB9140BDyKPghD2wsO",
"FxllllUmFsPzrrrzPPjQCQzOpoSpUEonUrYXYVVqSBzBBgEULyF@@QBKPgjhgPgP",
"y7JRUllRppplyijPPstBBQzBqkoUfFmTRzXXXVVqSoQxDjkUMadSHdMR2zw2wjws",
"ualRRJlRlllpqqqRRRFBBOPOpkEoaxaSqzZXXVVqUGTfEt7UnndmnMIJHP5@2211",
"FuFBxJRRHUJd66lakBOQBhPARkLUnoaSqVVXXVVqUaxfv5fJMGJmTafJdPttOOOO",
"E9!g!sdllllppppDAAOBBQjOJGandGnUqrZXXZVqJacFkN7mfLMLmyLTLht3wwhs",
"25jzPrNlmua7F4DPOQhwQOAOpavSdLnSqrZZZVVqTuvv8@yMfLLMF7vLS434wshi",
"Cb4swgFUaEDQwh4ght3DBhPOpB5mSaanqrZZXVVqnf@5N97muccLFcFc7hww0iii",
"CkE4@DKmokk@5D5hhOwNvOjOpDNmTaaTqrZXXVVqaJE95DLSyuauvu8KFO44ww99",
"bbCEy7JMbk8FkBEOhQ3koCjQpk8SmGadRrZXYVVpaJF9K8SSMTTcFFyKNw3tstQ3",
"ayBEy7R6D@vk@DDhAQttQtjOpaaJdSamUrZXXVVpamuvL@FyKMmd8vF8hssgPPgP",
"Fak7f7pxP2vDD44sO4tQtBhOaommdJamUrZXYzWpxfF8Fw299NN1NN18O0ijs0iw",
"7lJLTcpDg1KukE1jjhjjjhtjFammM6aTUrXXXVWpCkbD5w153@11F@1vwiihg!ss",
"GlHHHKqhP48qR189Q33905EOLmLHSTTIUrXYYZYqxD7EB42uu7F1@8NNg!!jsgPi",
"6H6eeLq0zsj113223@KywnokTGuMJSTHRrXYXZWpCBok2D1KuFN9N1N@PzPPzPg!",
"HIeISGq@rggswsh2911wPBQDTaFFLmGHqrWXXVVROAbQC7@KF81491153rPgPgis",
"JeedHGHqzr3w3jw922uybf7LUlu8uGGJprXYXZZpOAOPtv0KN1F4i5FQur!Q!h03",
"HI6IHlupRrgiggiii0eRlRRllldvcSTUqrZYYZVpBODOkLDKvvf@t3btLzs4gihh",
"IHHIHHlKqRjNigtsw3dIyMMMH6mLLITlqrZYXVZqxCoDCEBLD4thjtB3dzstshhh",
"edHHHel6GppRpMMyN@H6fHIGJ66MGmmJqrZYXZZqTaSQQB4F54BgAOQBSPi3w3iw",
"ceIeeeeeHeIJlHlJeMHeyHHMIIddmSmSprZYXZVqTnoEBEOvxBBQQAB5oPs3h0hw",
"KKeKeJIKeG6IcceeeKeIeeKHI6IMemnSqrXXXZVqUxybbF4yFD2BD25Dfg94i3s0",
"88uFMdeeeeeeKKKKKcKKKKKeIIeeGJamqrXXZZVqSbkO2EDf222222F@yi933999",
"Nu8FHeIHeeHIKMeeMMeKMeeM6d6dMTamqrWXXZVqn2OhOtwf22N94ivxLi0w9991",
"81@2HHeMedHIcMIe6eeKKeKKG66eGGamqrZXYZVqnB24Q2QfQ1539hBfRi309918",
"1@N1cRRlRlHeeeeKyucKueeMddeddGfSqrXXYVVqDbk3Ek4f9E10Q3hONz!!si93",
"s30ws8eccHH88F@N8@@8NvccMMMddmamprXXYVVqCxobkkD24Q34B4Qszrzzzrzr",
"043w!w@9i1u1uKeelHIHI6MKeGTmeTMdqrWYYVXqCboD25393t422D59zPgggggg",
"w23s!1N!w1eFuel6HG6JdJ6MMdMdTmGKqrXYYVWqkCvbFkh2ww3tttEEj030i!!!",
"0hsg7p@gP3KF18lIH6IHJI6dLacdTGnTqrYXXzOqyoTlJ7kN22@KFEE@9t93i!!s",
"3hihuyiggtuv89RHHHIHI66HKKKMGGaaRrXYYzQquonlRGuKvkmRpJLSD4143jgj",
"49123sggggNyN9RHHH6HHIIIdKKLKGLfRrXXYzOqoaamfFE@244Q@DDp@!923!gj",
"0wQwthsgggNuN1RH6II666IIKKKLcaayqrXXXzAqxayFFN@v5EB55OAq0r!!gPPg",
"wh40w4tsgwdu98RmH6IJIJH6ecKuKcufRrXXXVWqxnf5vFvfvbbfxDOqwrPzPPzz",
"5255D44hhud@@IHH6IIJIHHdHcucfLuTRrZXXVWq7n7Cv@kyuaofobCR9rgPPggj",
"E55B@99E7If2elHJIJHIHJHHHcucuLnSprZXXVZqxna7y7yafaLanaxUn!w9491N",
"w9433O557FNuJc6JlJIGI6HIlKucuuaTqrZZXzWqxfdSTaoLTfLaaaxaai424004",
"FvbQBMLa6b3NN@FNuMGeMGmIHec87LTUqrZXYVYqnnTyvv7TcyyKyNNvF039399i",
"bbb5EUmSUDwb8@7KeHRMIIlR7DN@caTJqrXXXVYqTSaDQODdcuNNu@1@vw11w19s",
"bCkDBnfok32yN91191KTdMd@j4@FGGSUqrWXXVWqaxOjOOBv8v8Fu99Nc01119!!",
"kCbEtxbOBA2v814991cIdMLDtkuuMGJlqrZZXVWqxCQtQD2121NFc818cw111igs",
"kD4OPQOsvEkecuy8vceRJllSJJUTMJJUqrZZXVWqbECBE51vFFNFfyFFK48N9g03",
"xBOhPk25MEBueKevvF7U7LRUGaM77mmUqrXZYVWqbQD2F@FyFKvv8F1FF319i!30",
"CQBhAUCFEjP321cF5@kdN57DjBuxxTLSqrXZYVWpECCEk1NvNKN99191wi3!giis",
"CB2ADobx2OOCFFHduFFUfyLtPw7xxGfSRrWWYVVpBCk5@4@KuK13w9913h4www33",
"xCQgxbbBAOAtBscuvuvnfMdx@EaUTTSTnrXXYVVpQthhh4DKccccN1N19w333w42",
"oxOkSJbAAAAjAPF@D2EyaonnSanUTnmSnrXXYVVRQthtBQNMKFF11919szzzPPPs",
"abxppvAAtQ2BvnfykEDbx7FoTSTSTGmUUrXXYVZpQOBCyD@KL78993311rgh3ww3",
"aCTRUOjhOBBAB@Ekbb2kCBDCBCSlUTSlRrXXYVWqCCvmn5@KMKduF@vH2zs3tjiw",
"nCoUmhBQCCxxvuyvbDQvC2CEgzDRSTTSqrXXXVZqxCbffCNmGMKMdfKH@z!shsss",
"oCRR7Obxxxaonfu7COOC2AjxUBjRUSSUqrZZXVVqnoDOBBDTTGLLdfbfvzgiws!t",
"xCUnxboxkxxkyabvoQQCxAAopkjUUTSUqrZZYZzqUaktQ5vJdMcuuvNM@z!hwsh9",
"CCaCBFkCCbbkxkCEBAjCCWPxSxCUUTUlqrZZXVzqUoy@2kdSmMLfKuFdvP03hhw3",
};