/* XPM */
static char * wall_texture_2[] = {
"64 64 64 1",
"A c #a4835e",
"B c #aa8964",
"C c #af9169",
"D c #ad8d65",
"E c #a6865f",
"F c #a98a65",
"G c #b3986e",
"H c #b69c72",
"I c #b99f76",
"J c #b69c76",
"K c #bba278",
"L c #b99c74",
"M c #a48662",
"N c #a27f56",
"O c #ab8b65",
"P c #9c7c59",
"Q c #9d784f",
"R c #af8f68",
"S c #c2a379",
"T c #be9f76",
"U c #b89e75",
"V c #ba9f76",
"W c #cbaa7e",
"X c #997349",
"Y c #a2794e",
"Z c #a47c50",
"a c #bb9c74",
"b c #b89871",
"c c #a78a66",
"d c #ae906c",
"e c #b29570",
"f c #b89c74",
"g c #b39873",
"h c #b59871",
"i c #957756",
"j c #997c5a",
"k c #a18360",
"l c #a0825f",
"m c #9e7f5d",
"n c #9b7f5c",
"o c #b3936d",
"p c #987856",
"q c #906d47",
"r c #a17c50",
"s c #a68965",
"t c #b0956f",
"u c #b59a73",
"v c #c3a77e",
"w c #a18562",
"x c #af936d",
"y c #a78c68",
"z c #b69871",
"0 c #af916e",
"1 c #a68864",
"2 c #a68663",
"3 c #b5966e",
"4 c #ad8d69",
"5 c #927352",
"6 c #aa8d66",
"7 c #b3966e",
"8 c #ab8f6b",
"9 c #a0805e",
"! c #aa8d6b",
"@ c #b79e75",
"ABCDEEEFGGHIJKLMEENDOPQRSHLTTUVTWXYZYYXWTabDcdeabbLfgghVaijklPmn",
"NOROBRfSSSSSKHfeHUoRREpDWTLKHaabWqrZYYXWSTEAsMtKhuetetdevpjwlnml",
"NRRBCKSTVUUUVIKVxyABDNpBSEEzoGbuWqYZrrXWSHAABPxTouuee00bKim1kmjm",
"PORCVKfaTSSvWKa0mjp2BmQEbERLa3zbWqYYZrXWTCBO4NFbxhzHuttLa5mklmlM",
"i6xbvHVKvVecjqq5ppm4O2pAS7GvbGoLWqYZZQXWSCoabRRazuLzet8I0plkmPmm",
"qFCfKUSvk55555i5PnPFOBpAW6ESaCGaSqYZZYXWaENAApN21uVKegJKm5Plp5pj",
"5FtLKKhqqjkM21yml9m1CCP2T7CSVoxTTqrZZYXW3DQPmPk9jM28!y!sPP9mP9kA",
"Q0huUS3qmeJhdcd2PmPmNPpNEBRSTGoabqrYZYQv33DBBAkkmllwy1k29nMlMkl2",
"wbSV@vaqkTvKyMympnpPppPADBESaCG3oXZZZQXS3abCBAAEyc1wwsM2jmkccA9m",
"1hvVVvTq1vvKykywmm9212PEoDDSTCGboqrZZXQW3CbabhzVVKKIgeylpjjk9Ppj",
"BtKIIvaqps0c2c4c9Pm2d2pAaNBvTCGaoXrZZQrW3AEDOEEByt0uKKV8ij26OMMB",
"DxVKUKIqq5ppk92kk9nMOEpNvmEvTC3b3qZYZXNWbNQAEP9O!ykwF6hJppkO29kw",
"xGHKKKvSBnp5qqq5pppODEQAWoavbC3oaqYZZXrWTDQ4O9RTx008ywMJpipPjipi",
"CGbaTKSvWvvuc9p5jP9EBBpBSCbSbx3bTqYYZXQWTGPd2ACT3HLJgJCv45M1kmmm",
"xuzaKSKVVKvvvvvvvveoEA56S66TbozaSqrYZYXWTTxoF2zVbLLLfz7KS5M6F6sc",
"RCC6C3KKaVULHKvHDBAEAApETBbv333LSqZYYYXWTH3o0O3aHbLfbGGLSi91n9l9",
"B1i55muVVKKvvvvFN9AOENN2THzfLHHVWXYZZXXWTute0dob3ubuazefannlmmmn",
"D6m5558IVhh76wspmAABENPNSaGKV3GVWXYZZXXWaG0006t37gggxdxJbwlMlwmn",
"CdOMmpoaG6FEMjFpPEAEE9NPSsFfaGbVWXQZZXQWGe0!820hxete0x0ehPl9lknm",
"CCROd8IHxCC4F169P29BC2PNvBFVTbzVWXYZYXrWGLdwdsuf7zdtgtdegP1llklM",
"CxOF7tKVGxoCRsCmNA9Eo4PEvCRSLLfTWXYZZXrWzVt28xaaaVuud!0h1nMMlnw1",
"xx8DhGSH18CxC6499mM92BpAvxtKLHzuSqrYZXrW3LgteC6ddh0gd!d0Ppji55ii",
"xuoxbGvsp2C6cwA91EMABMmAzGfTaLLfSqYZZXrWGhe46BM!wyy8!8F8lnjjPjmm",
"hV@zf7WniyJIxyFlPPPpm9mND7faLHHbSqrZZXrWCdO4Bkk0sy!!cds0mjlknnnn",
"UIuVI@WjpctvVxywkk4AP81MhHUaHHzaSqrZZXNWDD36B1Mtuee0!0cgPjpPj5ij",
"@UuK@GWm5jj0!wsMc!uewhzRuuhu@LbaTqYZrXNSEOoDF4!ut800!!dd55ii5ipP",
"@JJKUGWtqj5n9nsws!01ic2kfhCxfHGaSqZZYQZTN9426xOu8y81wy0c95iiijjm",
"VVIUVHKvqikmknk1y20g!f70KfdxufLTSqYZZXrWAP9pEtMgd4d1M4tyo5nMnP9k",
"II@JVKuvJqjci5m9wmJvJSVaKKhxuUUVSqYZZQrWONF14oFee0oBABe4eqnMmmPm",
"IV@@IIJJWJ5!25jwllgfCUzzV@GhHUVVSXrZZQQWbD7RCOk0F21Amm4BJ5l9i99m",
"JIIJJKKJzvvvvJg088KJtIJuKuJIfLLVWXYZZXrvT3zAOOAe6E9AAAO6T5wkmwkk",
"JJJuJJKIuHKKKKKJthIJgJUfK@fLLfaaWXQZYQYWT33OO1MC0OBAAB6Oz5wwllll",
"eggJJUJJJuJJJgJJgJIJJIJJVfHfffzVWqYZZQYWabb4xxce44O12O4Renls1kmw",
"!0ttuJJJJJJJggJguuggguuJ@hhUHfhaWqYZZQQWb3FA1FMz8F1AAFxx0wwwwwsy",
"8t8!JUIKJJIJgJJJJguJgJggJuJfHfGfWqYZYYYW3EAAmAneF1y1MwxoLw1wlwsy",
"y00ygKuuJ@JugJJJJgJJJuuuLufuHHzHWqYZYYQW34FlB6Me2y4ME9y7Kjwwwy8d",
"My!!tKvKIIVuge00t0gJgJJuuhHfHHGbSqYZYYrWoR4Es41eMBsAEMkwc5ijjmww",
"mkwkmyJgggud8yy!!!d8!0egehuzufGfSqZZZQQWoRb0DR20MlMkB21pq5555555",
"l1Mmjl!wkyg!0JLJIIIUUHhhuuhfhHHfSqrZZYrW3DC4OFk!wMMk22Fmiijijjip",
"m21nms!nm!Jx0uUIHHUUVULuGHzfuHuuWqZZZrrWCRo3o4n49mk12k1BMnwlmlpj",
"9wmiyvtijcg!ydK@@UUI@I@UuhHuHfbbSqZZZXrW3zhTKhC0sFhhx6R0sllwwmpj",
"MMlltdkipkeg!svUfUIUIUILuuuuufzLSqrZZXNWGGhVSuth!xuSKVbT66scljjn",
"1wsyFmppii800sSVIJJU@UIUguuu3uGfTqZZZXNWGG3b3t8esMM64FEvMjsylinP",
"mmkkk9mjip0e!MSU@@@@IIUVutguehGHTqZZZXNWxGgodCdo44FFOENvkqjnjii5",
"lmwm1klPP1Je1!SU@UVIUIIIIgggeG7HTqZZZXNWoz7007oboC4ohDAvkq5ii555",
"1cO16skk9tJ!cKK@UJIUIIUIIutgegGLTqZZZXNW7zx4dR7bGG7bbCBScqi55ijj",
"6806FMM48ge!LKVTKIIUIUIKVgxegzhVSqrYZXNW7b7x3ChaHbo33h3Thjsmkyy!",
"MMEkA2403exdhghff@U@@ULUVgtgzhbTSqrZZXrWGHLuazGLuz73oo3aejsM1ynl",
"x6F66LVGaGw4d680tttffu@HVeehxGUTWqYZZXNWbbbod8xfGzthed!0dmcswssn",
"oCdR6KubTRmdc8gegueLuIISe1!8xzUVWqYZZXNWaaDA2s6Ltg!8u8c0ekcssywj",
"C4C4Eaxo6lkeyc!sc8gVghG!pMx4eHfaWqYYZXrW3RmP2Fs4d0!dg8y!glwcywjj",
"4CDOACOAMk1e8swssygKGGH2lFGzHULLSqYZZXrWDEOAB2F!y8!du80!tly8!jjj",
"44BPpE9keOOJute0d0gK@IKaTUVaLIVHSqYZZQrWR24E8BF0xd0xJeettw!!njll",
"FF2P9OBoIO1gegJe8xeIgfVaLHh73UHzSqZYYQrWDE4ERxt0gue0dx8t!s!wilwm",
"D2APBbROF5PMc!g0ysd3OFxlPAx7CbzLSqZZYQQSBOC4dFs80tc1sys!cnwjjnnj",
"RBAPObC4OP9Dd8JJtd3uooompPoCoG3aTqZZZQQSBO1OR16gt0ww21lwymwlwlw1",
"CDAAoCoBN9AAB20004xa3bLC4RGLzabLbqrZZXrTBPlMPAF0gegd!!!0ywwlMMkM",
"oCAoSVDAPANpPi!xCOsx3oG3b33ahHHaTqrZYXQaRmmAAE!egtt!sssci555piiP",
"bCoWvCPA2BBBoCueC4O3CC6oTbGTLLLaSqZZZXQTDNM4dO6gee81s1wymijwkmmF",
"3C7vSE9AAEA2Ost8xOECCOFDDO3SafLVTqrZYXQSRO3hLC6guuut080Jy5mwlPmA",
"bDHSuP2DDRRooo3x42ACDDDDPqBSKHaTaXrZYXXWCOe3hysuufhJIeuKy5jmPjPm",
"GDTT3ERCC3b3aL3xRANED9NRSAPaTHUaSXYZYXXWbCN2BE6VHHhuutxJt5pm9mml",
"CBTa7oC3RCoCooCdRBADoNNovCNaVHaaSXQZYQXWabF926taHbzetC4ee5pmknmM",
"BERCDCCCDDRODROOAANBDQQoTCDTVHfTWXQZYXXWT33Rd6uULbfbgt0uupl9lmPA",
};