/* XPM */
static char * wall_texture_1[] = {
"64 64 64 1",
"A c #997c5a",
"B c #9e7f5d",
"C c #a0805d",
"D c #a78663",
"E c #bca278",
"F c #b59972",
"G c #b79c75",
"H c #bd9f77",
"I c #bb9c74",
"J c #b79b73",
"K c #b59c75",
"L c #b79971",
"M c #aa8d69",
"N c #aa8b66",
"O c #b2936c",
"P c #b89c73",
"Q c #bb9f75",
"R c #c2a37a",
"S c #a27c51",
"T c #a57c51",
"U c #a38059",
"V c #ba9f76",
"W c #b1906b",
"X c #98744b",
"Y c #a7865f",
"Z c #a58662",
"a c #a4835f",
"b c #a48662",
"c c #aa8964",
"d c #ac8f6a",
"e c #af946e",
"f c #b59a74",
"g c #ac8d68",
"h c #ae8d67",
"i c #9b7f5c",
"j c #a18360",
"k c #a18562",
"l c #977852",
"m c #af916c",
"n c #b0936c",
"o c #ae916c",
"p c #b29670",
"q c #b4966f",
"r c #b89f77",
"s c #ccac81",
"t c #a0794d",
"u c #9c784c",
"v c #c6a77d",
"w c #b99c74",
"x c #906d46",
"y c #b2956e",
"z c #9c7c57",
"0 c #977858",
"1 c #b29872",
"2 c #b6966f",
"3 c #b89f74",
"4 c #a0825e",
"5 c #b49873",
"6 c #ab8d68",
"7 c #a68965",
"8 c #ab916c",
"9 c #927351",
"! c #a78b67",
"@ c #a68864",
"AABBCCADEFGHGIIJKLMNOPQQRSSTTSURERVQHIHRWXUYZabcdefJHILFWNcghhcU",
"iBjkbilmRnoppqJJrGkjWDHQsXtUTuuvQHPwIPHvLxUchWHIyqEEERRRELhchWcz",
"CCBBjB0pR1myfffwfoCaCz2RsxSTTuuvPPLq2YYWhXzahaCayHVE33V3EEVdhNci",
"j4iBb4lbQLp15FGp2647DaOQsXSTTuXvLP2OI2dOWXUDY4zzinRvsvREEQELOcZl",
"ABABk4lkRy851qEpyFW2HcOIvxSTTtuvLIO2EwLvc9BNczA0999B!pVvE3Qwqhc9",
"lllzzB0zvr5frEfkjaUUaSORRXSTTtXsIPhOEhavU9acczAA9909xl9ivEQwqoZ9",
"CCBB44il7!dMdMkBCBUzuzOLIxSSTuusIIm2vPcHUzDchZaZ4MbBj7CxlvREqnY9",
"4baD7!bBjBj7kAijaUCZch2P2xTTTuuvLIO2vOD2zzBzaCzC4yMNeKpixyvJFJgz",
"B4BZNaCBk7k7@4kkCBBhy2LIIxTSTutvLLyLv6U2Uzzlzlll4!Md5ssbxmsP3RnB",
"lA04aB00B@o5GEEEwLIILLO2RxTTTuSvLPOJvWc2azBaDBzBa@7bdsv@xdsE3Rqa",
"7b!gdNB9@VEHGGeobZaYNUY2vxSTTutvLPOLsdYhUzBNd40j@g64A!M0xmvVERyY",
"444agZA9rQddj4jba4lzczzIvxSTTXSvLIhLvWU2UlUcNaBBBajBA09x9qRPERyc",
"l09z4A00raZdMNymIdCChXaRvxtTTXSvLQOLHIqsY9YhDAl9xxxx9zjdvRVVEQnh",
"B44a7@0@ve5rVLLFQJaNhlhRvxtTTXts3QO2HLnvY9aDC4Bl0447HvssREQEQQyW",
"!!Mc660yRJVVJPIVQI4cOnQHvXtTSXts3QFyLOYRN9accORvvsssvEEE3VEHrQqq",
"BBCij7CWE1LPwPLw3Qh6OLIIsXuTTXuvHQyLR2DRclCacUanHRLLwEEEEVGyo6de",
"iB4BBkB!VqqGf5PFqfogonqPsxSSSuusVHLL3FLRDzaaYaYUjVERRREEH5B09B7Z",
"BBBCbN4NVyn5eqPF2fMoeoyLsxSTStuvPHfwVyPvazzYYiaCiMbqyqqPI79904!D",
"BiBib!CNw1yeeoF5qF!!M@JLsxtTTuuv3VFFG6YRazCZg4aUzNzj7NdFweA0B!oW",
"bkkjk7j6fnmyynLL2Ig7M@I2vxtTTuuvLVJFQdNvYlaYyYaCBmahWmOOFJ6NgmmW",
"bbBBb7adF5popPPPrwn66OQyvxtTTuXvLVLFQpnvYzY6y4UC4o@ynyyyqVymdhdm",
"90l9lzzboompFG55op7mpqLLRxtSTtXvF3PPHFJvUzccYCaaC7DmOyocOEFno6mO",
"kkiABB4boM@p8!okbNk7ocOyIxSSTtXvLw3JVLPEzzcDZcDaCM7MNdb0@vJqqnO2",
"AiAABj4B88!e!!ekb@DD7NOhIxSSTuXvLIQPwwLq4li0lzBiBmM8G5!0bvKFVPGG",
"A0900iA0meM888Kpy@jbqOhWvxtSTXSvQIPwIPJfN6@AZbj!b88Kvd00isfrrEVE",
"A099999xeo88o81ey!ob8NhcvxtTTXSvQ3IwJ2P56FmjGvM!bkkM80i0isprrr3r",
"4i0l009BrZ!!MMMmFN5M7cD4vxStTuuRwPQLyn2p4!4l@dj!!@4BA9Cxfv1rrr3r",
"kBCz4j9MvY4MM7op5CeDlaaBRxSSTuuRPQ31n1GQdffMfojM8!40jkxxsVfrrVrr",
"BiBAi4l!vaDMNOW5L@ncabc@vxSSTuuvwQwLpGHVPVRGRKj7kj007xxrvFVVrrrr",
"iijAi49NH4YYUYYhO77gWOWWsxSTTuuv3Q3QFfr3PfH1rpkkki90b@vsJrrrrrrE",
"44jAbb9OHUUUYYNNhYaahhhIsxtSTuusQ3VVJJ3GFfKFGfoe8e8RssvGfrrrrrrr",
"44jizb9mQUDDYDgW6acYYh2HsxtTTXts3I3rwGGwJrr1ff1KJGRR3ErGrG5GGr51",
"i4kBkkB!qNNZZYNOO6oO6OIQsxtSTuXsPrGGGGr5rKKKGKfKKffeKrGfVrKf5Kfp",
"@77kk!kePccCZ@7W1gNbaY2LsxtTSuXsJVKGG3GfffKffKrKfK51KrrKff55e8o8",
"kkkkk7kfwNDaZNbgmbaCzzc2sxtSTuXsJIPGfGGKK5fK5fKKKKK5KGKGrrr5MMe8",
"!@kkk7!RVzaZ@NcNmZmDaagysxtTTtXsFwGfJfKKf5KKGKKrKK55GGKGfFR8k!e8",
"BiiAA4Ab6laaZZ@Z8@yZ@NhhsxttTuXsJ3JwfKfKf5ff515ep1fprEEEERv8d!8M",
"9999999xDYDZZZbaMbdNW2hWsxtTttXvFI3GGK151eMdM!88M88Me5EKee!A4i4i",
"00000009@Y@DZba4jk6dnhNhvxSTTtXsFPPPJGffFfGGrrrrGGfe!8ek4BBBC4@4",
"AA0BjB4C!YD@4zCZ4aaN6NmOsxSTSuusLPPJJKGGIEVVrrrrPVKo8KMB4j@BAC7b",
"0A4BkbC7NchodmN!@NqLQyLOvxUTTXUsLwwJfKfprrrr3r33KEf7epD008RoAAkk",
"0ABkb7a!LLERRHeopywV3qPWvxTTTXUvLIGJFGKFVVVrV3VV3Epj15b0AkepbBZb",
"00i4@@0ZsZcW!@b@oNoOpeLWsxSTTuSv13JFKG55rVrrrrrG3E5j5!i00i47!@bc",
"l00AAi90szYOgNcgogdh2n2OsxTTTuSvFw25ff1Gr3rrr33r3E545ni00ABjjjC4",
"999999xlvUYLWyn2L2pNhmLWsxtTTttvLPp1555wVrV333rr3EKi5r70jCk@4C4C",
"0A0999xZRhOPOOmqOqOMdhqOsxtTTttvLV1p555GQ3VrrrrrVGr8!rpjbN7!ZNZD",
"!@kbbjAfEoLL2qLJFq6dyh22sxtTTtuvLHfpF51GEVVrr3VrErEHee5maZDcNmdg",
"kkk77kC7wyF2LFJ2L22LQLL2sxSTStuvPEwp1y1rVVrVVG33fFqF5nyqcZ7DZ7Zb",
"ikM7k!k7GNMp1qF1JpynnLI2sxtTTXSs3VG5oeLHQGPfGJKF8pdMdaORPFGcbgOd",
"iikM!8@Mf!7epopeqpNbUd2PsxtTTXuvQQfpooZoREVVErf58fpdo4cvnqwgaogO",
"iAi8M7jdfM@epne88!!baCNysxtTSXXvPHVpeyjB!GF5EpM!7M!M5DY2OOLc@gdO",
"iAA4e8@Mf8Mf58M!NNgchaNNsxtTSuuvLQVF1qo@dwfyEedD!M!de!aYYNONch2O",
"ijji!8!8KoeGee1187ZNdDWcsxtTtuuvJVHFFHVREEErEMMde5pKKM7OlCZzYYNM",
"AkkBj87M1dnpepK5eodNd7m7sxtStuuvJVQL2PqPyJPLEeee8EfrG7bHchalCZcO",
"AAiBi4ik!77!7M5e8edng@WNsxtTtuus2IPymy@BjoyoFdeMe5M7DllWW2LzCDYq",
"jkjkbkj77kk!!7p58eomWZWhsxtTSuus2IwqOnbBa2I25gymer8beBzhNLIaYY4I",
"bkkkkb@j!8!88eefo74B44YYHxSTSuSsJILJPnOFyPPJJOOpe8DaCaaYcWPWUahL",
"zl99l99A8kk!Mopppg44a4cYvxtSttSsIILI3yLQO22yyNNgegzzzUYUc6EI2hW2",
"bBCkki9zeBB@!81peMbcWZNYvxtTStSsQILIQqVHWOOhONcWp5W2hWhcazyvRnyL",
"4CBkbj9bRe8555rGfem2LedhsxtSSttswL3QHJoohhYchYhWnoNhahDaaUcwvohI",
"Azzi4i9jR15VfPVwFNqLqNYWsxtTSuusPPIQH6lzWYYOWYNhoyymhWWcc@aqROh2",
"B4Ciii9jV8qJFPJPIWcccYhLsxuTTuXsPPHHHz4HWzUhhUaNW2wI2OhWhhYqvIhO",
"k44iB49@pde2FqLFI274YaLHsxuTSuXsLIIHHznvhlUhhacOnpyWOOhhOOhyQyYW",
"jCBj4Cl7wyoe55GFPJmMOWPQsxuTTuXvPPQVHhOvhXUYcUUYNhccOhhhhWWNhnUa",
};