/* XPM */
static char * wall_texture_3[] = {
"64 64 64 1",
"A c #9a7a58",
"B c #9f7f5c",
"C c #9e815e",
"D c #9c7f5c",
"E c #a1825e",
"F c #967756",
"G c #a88b68",
"H c #c2a37a",
"I c #b59872",
"J c #b69a73",
"K c #b5956f",
"L c #b69872",
"M c #b89d75",
"N c #b89e73",
"O c #bb9c75",
"P c #ac8c69",
"Q c #ae906a",
"R c #b3986f",
"S c #bd9f76",
"T c #cbab81",
"U c #906d45",
"V c #9d784c",
"W c #a47b50",
"X c #ba9f75",
"Y c #bb9f76",
"Z c #c5a67c",
"a c #ae8e66",
"b c #9a774f",
"c c #a37e56",
"d c #a4825d",
"e c #a5865f",
"f c #b89e76",
"g c #bba278",
"h c #aa8c67",
"i c #aa8964",
"j c #a18462",
"k c #a1835f",
"l c #a48460",
"m c #ae916c",
"n c #af946e",
"o c #b2956f",
"p c #b69c72",
"q c #b3956f",
"r c #a07f5c",
"s c #b89871",
"t c #b99c74",
"u c #b89b73",
"v c #b2926c",
"w c #ac8c64",
"x c #9b7c5a",
"y c #a58663",
"z c #947350",
"0 c #af926d",
"1 c #a78863",
"2 c #ad8f6b",
"3 c #b39875",
"4 c #b89f77",
"5 c #a07b50",
"6 c #b69c76",
"7 c #a0794d",
"8 c #a58a67",
"9 c #aa8e6a",
"! c #a48864",
"@ c #a68965",
"ABCDEDFGHIJKLMMJNOPPQRSNTUVWWVVTXYYXSXNZabcdQdeeGIfgYXJIheeiaaeA",
"DjCklDFmSQnooLpqXJllraSsTUVWWVbTXXtuYRNZvbrwvoSOnIHggHHHgNweawwx",
"CCjkykzmHo0oIuutf0DdexsOTUVWWVVZNpqRp1eLabd11ei1oHYNNXgggHSQiawc",
"kkEDCjz2Ho03KILuRQkeveQXTUVWWVVTNNvsSKaKwAdEiEAxyOHTTTH4XNXsmwiA",
"DDxxkEFyHn0foRYIqIPvSvaOTUVW5VVTptQRHNOTibd1arAAzUzD13gZgXYOoiez",
"FAFxEBFFZ60YOHMjxdcrdVwOTU75WVVTsOaQZvdHebdQirDxzFzzzzUCHHXgIPez",
"DBDBeEEF898G98jDErAAxcwsZU5WWVVTsSvKZveHrAiQayrlCyGrEyAUzZgpuQeF",
"y1lyyllDD!j!jDCCxEeedwKSSU5WcVVTptvqHweSBAxArxAx!0JhogoxUoZNqqhA",
"CxE@lyEAD8y@!!@CkxF1vvsNSU5WWVVTRuQsZvdvcxAFAFFBky98fTH@UeTNXOKd",
"FAAkBxxFx!o66gHSMuOOsQRsHU7WWV7TpYasZaesdEBkiBrlE@!jnTZ8UkTXYgqe",
"e!@P2hxFy4gY3InG1yewi1dKHU7WWVVTpSwsTwBarArPQkxD1h9CCPPxUiTXXgRd",
"ClE1iyAFfM@9@ECjyBArerbsHU7WWVVTpOwKZvdsdblhweDCEyjDAFzUUIZXggvl",
"FFzABxFFY@y20nm0RiA1ibdZHU7WWVVZRtapHNKZebdPixzzzzUUzArQZZgXgNQh",
"DCCD@8zBHnLOOtuJSIrlKxvHZU7WW7VZNXQtSsaZibEQlEBAzABPoTTTHXgYgRQQ",
"@h@1PPFoHuMuutMtXLEiKhuHTU7WW7VTNNvQpQiHwzda1aSTZTTTZgXgggHHYRQm",
"EkDxk1F0SutspRusSLiPmaOXTU75W7UTuXuKOmwHibceddehpZNXgXXMYNXoaha0",
"ADCCC1ePgIL6RIuRRJ02I0sNTUVW57VTXgNMtttYcAdd1iBBBYgHZHHgg6!xFj!y",
"CCBkkik9gQoqIoJKpJP9ohstTUVWWVVTNXtupqsHdrrdeydrDhkQpRJpgQzzzj11",
"DECCk@r2gm9oI0ILRIGG2!KRTUVWWVVTNORIJ@aHcrrdiedyBPx@awhRXoAAk@Qa",
"CEkC1@ePYRmnmnuKRJP8GhtsTU7WWVVTNNsIOQQHBAdwLdBlBh@aQvmvufP@9mmQ",
"jjDDyh@1Io0qRIpsL4I@PnOLTU7WWVVZpXpJYnpZwA1wKrrrdQ@0n00QRSovP92Q",
"FFAFABDko92ooMMqonhvLvIvZU7WWV5TNtttfpNgrxidPrCEri@9m0o2mSIqoham",
"CDAxxCClo9G9nG2!@91hQiKvSU7WWV5TptuNXpsLrEirylylkhCGh09AEZpRRqRo",
"CDDCDDCAm8G2mjG!lyy@GenQsU7WWV5TsttN4RRtdxBxBxBAeP!o36mFxZgJRuMM",
"FFAFxxxF2h0m2o63oGk1QqKiHVVcW75TNXuffpt6ii@F!h@j!P84T!AxyTpff4XY",
"xFzzzFzz02G99030oh2v2hvdZV7c775TNNuMMRsIwmo!uY98j@jG8xrzmT64ONNM",
"CDAxFFFxIh!8289moGIlih1lHUVW7V5TuNNMovoIe!DzehjGjyDxxFxUggpY4NfM",
"BCCDC1z@ge1y22oK3!oBBrxdZU7WW7VTtXNMmoXM0LL0Lnj9GkCDyCzzTN6f4f4g",
"CDCxDyzhZEPqPQmKL@qGie1QZUVW77VTXNtu0JYXuHgoH6DjyxxDyUzqZff44ffY",
"jCCDxjz2YdElye1Po1hhvvPKZVVW77VTtXtMIJf4pp604oj8!xzFDDTTf6644Yf4",
"!jEDE!zQHclBrePvalileKvsZU7W77VTXNpuMOtOupgp46o3mn34TTHfJ46ffg44",
"ECCCkEzPgB1e1wivae111ouNZU7W77VTXNNfM66Yut4L33o3n4TgZX6N66666M66",
"kCCj!!DPqwv11Phqo@QwQossTU7WWVVTuX4tMMXM33443336363344J36f6333on",
"!!8jkyjqR1h!11Q0o@P1EeKsTU7W7VVTuMf6JN66J6633336363n64663J63nm0m",
"j!jjj!eLt1Eyl1h2nkirrAlKTU7W5VVTsMM6J6MMJJ33363336336666Mgg399mG",
"G8yjj@yHMBdyihhPmlQ1lywvTUVW5V5TJu66JuJ6JJ33MM633636464663M9G92G",
"xxxxxDzD1Eyy1@e@GyQilwPaTU7W7VVTLNtMtMJJI33I33oonnno6g4gggZ89mnG",
"zzzzzFzU@e1yy@lly1hQqaaiTU7WWVVZRtttuJpJIon99GG9G2m2934629GCDxkx",
"FAAFAAxFi1iy11lyy@leKaQwZU5WWVVZRNffp6JJIJJJfgggYM3nG0mjCCDDkDyj",
"FAxDCjCx111llEEyErei0wqaZUWW5V5ZRMM6Jp3utfggffYXM449n4GjDjjxjjyy",
"FxDjykE1oaQvKo@@hPosYIuQZU7WW7VZRpMuJ6fIM44X444fNg3jm3@AFGgnxDkk",
"ADxy@yj2HRSZOtooRqOSgKJvTU7WW7VTRNMJJ6J3644f4444Xg0830CFADoo!Cjj",
"FxDk8GDGTiaKw11G0P0ntIsvTU7WW7VZJNJIJ66J4444Y4X4Ng983GxAxABl@!yy",
"FFAFxxzFTE1Kwii2m00PvosvTUWWWVVZRuIR3JJ6Y4MfYNffNgnj3mCAADrkECDD",
"zFFzFFzFTr1svvvKRKK090IvTU7W77VHRJRKL3L6Y4Mff44NNg6D36kxCjjyElrB",
"FFFzzFzjZwouKQqvRq0wPvuvTUW777VZIMIRI336Y4M4f4fNNfgG96nDkhy!1iPh",
"G@j8jjDGYvRssRJJpqv0RKsoTU5WW7VHJYJq3636444f44Y4tOYInI62yyyP2@2P",
"jk!8!!k@vKussuustuIOuouKTU55W7VHpXfIqI36Mf4NfN6MJI3qmnnmh1yyyllE",
"Cj8!j8khq2PqIqMq6ovaQRORTU7WW7VZNYpIR0nOXpuMuNpoQ0289lvSJfJhh0a0",
"DDG98Gj23GjmomIo3mied1uOTU7WWVVZXNtommlmHMJJfO6J9322oC0HKuuQh9QI",
"xxx988!939!3399Gh9!ydrhKTU75WVVZpNuoQmjr9JpJMn2G!!!GIyE0hRKaaQ2v",
"xCFjm9jG3Gm6nm02G9GyiE12TU7WWVVZpXXLqo9yhRM6g99G!GG2qerieQiyiQQh",
"DjCD82y93GI3noo0m!8ia12PZU57WVVZpYSuRtSHHHHYgnonm33II1h0xrrAdd1P",
"xCjCjG!9oG00n3nn302ialQiHUW5W7VZuXtRRJsOKRuIgno33H3o3leOiliAr1iK",
"AxDxDDC!9!G8Gm3nm00Ph1PiSUW57VbZvuJn0qiAAhvwL229938CyFbaavurdlEL",
"jjkjjjjjGj!8G933n2m2PihwsUW7WVbHvpum0QlAlKLvt02oo6GGmrxwwaSwcd1O",
"!!jyk!@j9202nno33@xxkEeisUWWWVVZpNIJJhQR0It6un00nPB1leld1KverdQs",
"AzzzzzzA2!!GG9o3oPBE1BwisUWWWVVZtuptuvKSsRK0Rwhv02AAxrrdw0OSilQK",
"yjDllDzC3Dj89n3o0QyjQei1sU5WW7bHNtuXustSQaQvv1iv0Rqvawwi1EpZHQvK",
"ExCC!CFDZ9n33MOuJ0qqOw2aSU5WW7VHXOYSSRQ2iiiQQw1Q00QidiwdlAaHSQvv",
"AABDBCzjHJI6JJtu3iastaiaHUWWW7VHgtNSgezxa11aadaooIRvQQwwirEHHQQK",
"DBBBBxz!OIvI6utu6adieeisZU5WW7VZSNNSOAeZQccaycyPvKsItKvKwiitZRaK",
"kEBBBDzjIm0LJpLuYq1lkkaHZU7WW7bZSsXSsAvZabcvvdwQavqmvvvvQvQaHI1a",
"EEDC1lFyMo3LIIJJSI0ivvsSTU5WW7VZguSSOiRHvbbiwxAlwawwwaQaaaaiRacw",
};